<?xml version="1.0" encoding="utf-8"?>
<!-- Generator: Adobe Illustrator 26.0.3, SVG Export Plug-In . SVG Version: 6.00 Build 0)  -->
<svg version="1.1" id="Layer_1" xmlns="http://www.w3.org/2000/svg" xmlns:xlink="http://www.w3.org/1999/xlink" x="0px" y="0px"
	 viewBox="0 0 144 144" style="enable-background:new 0 0 144 144;" xml:space="preserve">
<g>
	<g>
		<g>
			<path d="M64.22,144c-0.05,0-0.1,0-0.15,0c-2.57-0.08-4.6-2.19-4.6-4.75v-15.79c-0.77-19.38-4.75-52.13-21.86-69.57
				c-4,12.05-7.4,27.12-9.31,45.85c-0.26,2.61-2.64,4.5-5.21,4.25c-2.61-0.27-4.51-2.6-4.25-5.21c8.09-79.25,41.77-97.49,43.2-98.23
				c1.48-0.76,3.24-0.7,4.65,0.16c1.42,0.86,2.28,2.4,2.28,4.06v117.09c0.44,9.91,0.05,16.81-0.01,17.7
				C68.8,142.06,66.72,144,64.22,144z M41.18,44.22c8.28,7.14,14.15,16.89,18.29,27.45V14.76C54.43,19.91,47.42,29.06,41.18,44.22z"
				/>
		</g>
		<path d="M124.56,115.61c-9.57-16.85-16.46-32.99-20.53-48c3.69-7.16,8.43-13.47,14.59-18c1.68-1.23,2.37-3.42,1.67-5.4
			c0,0-0.3-0.84-0.44-1.21C106.99,9.8,89.87,0.87,89.15,0.51c-1.47-0.74-3.22-0.66-4.63,0.2c-1.41,0.87-2.26,2.4-2.26,4.05V121.6
			c-0.45,10.04-0.05,17.06,0.01,17.95c0.16,2.51,2.24,4.45,4.74,4.45c0.05,0,0.1,0,0.15,0c2.57-0.08,4.6-2.18,4.6-4.75v-16.26
			c0.47-11.29,2.05-26.94,6.63-41.46c4.32,12.41,10.31,25.41,17.91,38.78c0.87,1.54,2.48,2.4,4.13,2.4c0.79,0,1.6-0.2,2.34-0.62
			C125.06,120.79,125.86,117.89,124.56,115.61z M91.76,14.65c5.07,5.13,12.11,14.28,18.36,29.59c-8.32,7.12-14.21,16.87-18.36,27.43
			V14.65z"/>
	</g>
</g>
</svg>
