<svg width="180" height="50" viewBox="0 0 180 50" fill="none" xmlns="http://www.w3.org/2000/svg">
<path d="M15.6974 50H15.6486C15.2213 49.9866 14.816 49.8067 14.5186 49.4985C14.2211 49.1903 14.0549 48.778 14.0551 48.3489V42.8677C13.7841 36.1406 12.4155 24.7757 6.49664 18.7205C5.11178 22.9042 3.93831 28.1351 3.27704 34.6336C3.22986 35.0676 3.01424 35.4653 2.67691 35.7408C2.33957 36.0162 1.90769 36.1472 1.47483 36.1053C1.2602 36.0832 1.05201 36.0189 0.862153 35.916C0.672297 35.8131 0.504491 35.6737 0.368334 35.5057C0.232177 35.3377 0.130331 35.1445 0.0686168 34.9369C0.00690231 34.7294 -0.0134673 34.5117 0.00866343 34.2963C2.80549 6.79246 14.4508 0.457137 14.944 0.201439C15.1949 0.0723883 15.4746 0.00989779 15.7563 0.0198961C16.0381 0.0298944 16.3126 0.112055 16.5538 0.258569C16.7946 0.405906 16.9935 0.612874 17.1316 0.859621C17.2697 1.10637 17.3423 1.38461 17.3425 1.66763V42.31C17.4942 45.7484 17.3587 48.1448 17.3425 48.4522C17.3162 48.872 17.1314 49.2659 16.8257 49.5535C16.52 49.8411 16.1164 50.0008 15.6974 50V50ZM7.72973 15.3665C10.5943 17.8446 12.6215 21.2312 14.0524 24.8872V5.13043C12.3125 6.93119 9.88968 10.1057 7.72973 15.3665V15.3665Z" fill="white"/>
<path d="M36.5625 40.1446C33.2643 34.2962 30.8713 28.6954 29.4702 23.478C30.7466 20.9945 32.3835 18.802 34.5164 17.2216C34.802 17.0142 35.0127 16.7193 35.1168 16.3813C35.221 16.0432 35.2128 15.6804 35.0936 15.3474C35.0936 15.3474 34.9906 15.0563 34.9419 14.9285C30.4919 3.40031 24.573 0.302013 24.3237 0.174164C24.0727 0.0486138 23.7939 -0.010769 23.5137 0.00160363C23.2335 0.0139762 22.9611 0.0976999 22.722 0.244892C22.4834 0.392542 22.2864 0.599046 22.1497 0.84474C22.0131 1.09043 21.9414 1.36714 21.9415 1.64851V42.2038C21.787 45.6911 21.9252 48.1257 21.9415 48.4331C21.9675 48.8495 22.1497 49.2407 22.4513 49.5279C22.753 49.815 23.1518 49.9769 23.5676 49.9808H23.619C24.0459 49.9681 24.4509 49.7887 24.748 49.4809C25.0451 49.173 25.2108 48.761 25.2099 48.3324V42.688C25.3725 38.7682 25.9226 33.3387 27.5026 28.2982C29.1584 32.9633 31.232 37.4683 33.6979 41.7577C33.8399 42.0123 34.0472 42.2241 34.2984 42.371C34.5496 42.5179 34.8354 42.5945 35.1261 42.5928C35.4115 42.5931 35.6919 42.5181 35.9392 42.3752C36.1266 42.2704 36.2915 42.1294 36.4244 41.9604C36.5573 41.7913 36.6555 41.5975 36.7135 41.3902C36.7714 41.1828 36.7879 40.966 36.762 40.7523C36.7361 40.5385 36.6683 40.332 36.5625 40.1446ZM25.2207 5.10316C26.9742 6.88488 29.4105 10.0593 31.5705 15.3746C28.6924 17.8472 26.6571 21.2312 25.2207 24.8953V5.10316Z" fill="white"/>
<path d="M135.435 28.5349V31.5679H121.134C121.085 31.3856 121.066 19.0741 121.112 18.6443C121.296 18.5926 134.86 18.5708 135.302 18.6198C135.358 19.6309 135.358 20.6444 135.302 21.6555C134.739 21.6555 134.169 21.6555 133.6 21.6555H125.072V23.4019H134.755V26.2227C134.4 26.239 134.042 26.2227 133.687 26.2227H125.072V28.524L135.435 28.5349Z" fill="white"/>
<path d="M154.484 23.1053H150.544C150.517 22.9666 150.5 22.8333 150.468 22.7164C150.425 22.4996 150.314 22.3019 150.153 22.1516C149.991 22.0012 149.787 21.9056 149.568 21.8785C149.451 21.8545 149.333 21.84 149.213 21.835C147.433 21.835 145.652 21.835 143.872 21.835C143.539 21.8489 143.209 21.901 142.888 21.9901C142.66 22.0414 142.451 22.1545 142.283 22.3172C142.116 22.4798 141.996 22.6857 141.937 22.9122C141.869 23.1161 141.823 23.3268 141.801 23.5406C141.708 24.5758 141.708 25.6173 141.801 26.6525C141.82 26.8497 141.853 27.0452 141.901 27.2373C141.952 27.5382 142.106 27.8118 142.337 28.0106C142.567 28.2094 142.86 28.3208 143.164 28.3254C143.522 28.358 143.882 28.3771 144.248 28.3798C145.79 28.3798 147.332 28.3798 148.872 28.3798C149.179 28.3737 149.485 28.3317 149.782 28.2547C150.049 28.2104 150.288 28.0639 150.448 27.8462C150.609 27.6284 150.679 27.3564 150.644 27.0877C150.644 27.0115 150.644 26.9354 150.644 26.8157H145.733V24.1553H154.568C154.568 24.2288 154.587 24.2941 154.587 24.3593C154.566 25.6841 154.549 27.0061 154.52 28.3281C154.511 28.9335 154.332 29.5241 154.002 30.031C153.758 30.4273 153.427 30.7627 153.034 31.0115C152.642 31.2604 152.198 31.4162 151.736 31.4672C151.051 31.557 150.362 31.6332 149.671 31.6712C147.774 31.7746 145.853 31.7338 143.945 31.7256C143.303 31.7256 142.662 31.7084 142.021 31.674C141.499 31.6568 140.981 31.5764 140.479 31.4346C139.943 31.2899 139.452 31.0115 139.052 30.6253C138.652 30.2392 138.356 29.7577 138.191 29.2258C137.981 28.6243 137.865 27.994 137.847 27.357C137.805 25.8047 137.786 24.2505 137.787 22.6946C137.801 21.9779 137.987 21.2752 138.329 20.6463C138.581 20.1746 138.932 19.7643 139.36 19.4446C139.787 19.1249 140.279 18.9036 140.801 18.7966C141.565 18.6037 142.349 18.5024 143.137 18.4946C144.368 18.4701 145.601 18.4511 146.834 18.4511C148.007 18.4511 149.178 18.4701 150.357 18.4973C150.991 18.4991 151.62 18.602 152.221 18.802C152.808 18.9816 153.329 19.3304 153.719 19.8049C154.109 20.2794 154.352 20.8586 154.417 21.4705C154.454 21.7684 154.475 22.068 154.479 22.3682C154.492 22.6075 154.484 22.8469 154.484 23.1053Z" fill="white"/>
<path d="M163.829 27.2101H167.767C167.791 27.3842 167.802 27.5556 167.837 27.7188C167.869 27.8616 167.914 28.001 167.973 28.135C168.028 28.2569 168.114 28.3623 168.223 28.441C168.331 28.5196 168.458 28.5688 168.59 28.5838C168.866 28.6398 169.146 28.6744 169.428 28.6872C171.217 28.7144 173.005 28.7316 174.794 28.7389C175.007 28.7372 175.22 28.7024 175.423 28.6355C175.594 28.5899 175.746 28.487 175.852 28.3436C175.958 28.2002 176.012 28.025 176.005 27.8466C176.008 27.7096 175.995 27.5728 175.967 27.4386C175.942 27.2658 175.86 27.1066 175.733 26.9874C175.605 26.8682 175.442 26.7961 175.268 26.783C174.802 26.7286 174.333 26.7041 173.862 26.6824C172.742 26.628 171.623 26.5845 170.504 26.5328C169.707 26.4974 168.913 26.4593 168.119 26.4131C167.383 26.3999 166.651 26.3152 165.932 26.1601C165.504 26.075 165.111 25.8656 164.801 25.558C164.492 25.2504 164.279 24.8582 164.189 24.4301C164.02 23.7457 163.96 23.0388 164.01 22.3355C164.028 21.8726 164.079 21.4116 164.165 20.9564C164.267 20.3705 164.554 19.8334 164.985 19.425C165.416 19.0167 165.967 18.759 166.555 18.6905C167.495 18.5546 168.443 18.481 169.393 18.4701C170.924 18.4266 172.455 18.4701 174 18.5272C174.641 18.5508 175.282 18.5898 175.921 18.6442C176.526 18.6949 177.124 18.8144 177.702 19.0006C178.122 19.1269 178.502 19.3625 178.802 19.6835C179.102 20.0045 179.313 20.3996 179.412 20.8285C179.57 21.4722 179.628 22.1366 179.583 22.798C179.583 22.8116 179.583 22.8279 179.555 22.8524H175.631C175.607 22.7109 175.585 22.5803 175.563 22.4416C175.548 22.1931 175.438 21.9601 175.256 21.7902C175.075 21.6204 174.836 21.5264 174.588 21.5276C173.881 21.4814 173.17 21.4379 172.46 21.4324C171.417 21.4324 170.374 21.4515 169.328 21.4759C169.107 21.4897 168.887 21.5225 168.672 21.5739C168.13 21.6881 167.959 22.0472 167.978 22.5613C167.979 22.7891 168.068 23.0077 168.227 23.1703C168.386 23.333 168.602 23.4268 168.829 23.4318C169.295 23.4916 169.767 23.5188 170.235 23.5351C171.791 23.5895 173.349 23.6331 174.905 23.682C175.401 23.6983 175.897 23.7228 176.393 23.7419C176.944 23.7604 177.491 23.8518 178.019 24.0139C178.348 24.1129 178.652 24.28 178.913 24.5044C179.173 24.7289 179.384 25.0056 179.531 25.3169C179.782 25.8458 179.93 26.4184 179.965 27.0034C180.038 27.7054 179.997 28.4147 179.843 29.1034C179.515 30.4444 178.653 31.2251 177.325 31.508C176.771 31.6207 176.207 31.6754 175.642 31.6712C174.287 31.6712 172.932 31.712 171.577 31.7039C170.422 31.7039 169.268 31.6549 168.113 31.6032C167.394 31.6008 166.679 31.502 165.986 31.3094H165.962C165.47 31.1945 165.024 30.9351 164.681 30.5644C164.337 30.1938 164.111 29.7286 164.032 29.2285C163.912 28.562 163.844 27.8872 163.829 27.2101Z" fill="white"/>
<path d="M106.258 28.3745V31.5571H102.337C102.288 31.3748 102.274 18.9409 102.337 18.609C102.415 18.609 102.496 18.5954 102.581 18.5954C106.312 18.5954 110.047 18.5954 113.779 18.5954C114.506 18.5797 115.233 18.6436 115.947 18.7858C116.139 18.8287 116.328 18.8841 116.513 18.9517C116.924 19.0959 117.291 19.3455 117.576 19.6757C117.861 20.0059 118.055 20.4052 118.139 20.8341C118.421 22.0159 118.451 23.2443 118.226 24.4383C118.169 24.8099 118.02 25.161 117.791 25.4588C117.563 25.7566 117.263 25.9914 116.92 26.1412C116.681 26.2527 116.432 26.3479 116.188 26.4486L115.996 26.5329C116.199 26.6036 116.369 26.6526 116.538 26.7206C116.809 26.8376 117.08 26.9572 117.351 27.096C117.548 27.2021 117.719 27.35 117.854 27.5294C117.988 27.7089 118.082 27.9156 118.128 28.1351C118.253 28.67 118.313 29.2179 118.307 29.7672C118.307 30.2813 118.307 30.7981 118.307 31.3122C118.307 31.3884 118.307 31.4646 118.307 31.5516H114.337C114.337 31.4646 114.321 31.3748 114.318 31.2796C114.299 30.7356 114.288 30.1915 114.258 29.6312C114.243 29.4472 114.21 29.2651 114.161 29.0871C114.128 28.9434 114.058 28.8111 113.957 28.7043C113.856 28.5975 113.728 28.5202 113.586 28.4805C113.289 28.3947 112.979 28.3588 112.67 28.3745H106.486C106.418 28.3745 106.353 28.3745 106.258 28.3745ZM106.258 24.9742C106.342 24.9742 106.391 24.9878 106.442 24.9878C108.418 24.9878 110.396 24.9878 112.375 24.9878C112.737 24.9851 113.099 24.9624 113.459 24.9198C113.651 24.9075 113.834 24.833 113.981 24.7075C114.127 24.5819 114.23 24.4121 114.272 24.2235C114.4 23.8019 114.42 23.3548 114.331 22.9232C114.302 22.7081 114.204 22.5083 114.052 22.3538C113.9 22.1994 113.703 22.0985 113.489 22.0663C113.236 22.0211 112.981 21.9947 112.724 21.9875C110.647 21.9748 108.569 21.9666 106.491 21.963C106.418 21.963 106.345 21.963 106.261 21.982L106.258 24.9742Z" fill="white"/>
<path d="M61.9128 31.508H58.7717V30.4199C58.7013 30.4907 58.6715 30.5152 58.6444 30.5451C58.1962 31.0855 57.5632 31.4385 56.8693 31.5352C55.9394 31.6847 54.9954 31.7258 54.0562 31.6576C53.4587 31.6328 52.8642 31.56 52.2784 31.44C51.8822 31.3713 51.5166 31.182 51.2311 30.8979C50.9456 30.6138 50.754 30.2485 50.6821 29.8514C50.5108 29.1292 50.5229 28.3753 50.7174 27.6589C50.7958 27.3042 50.9746 26.9797 51.2323 26.7245C51.49 26.4692 51.8155 26.294 52.17 26.22C52.7536 26.0835 53.3489 26.0034 53.9478 25.9806C54.8963 25.9248 55.847 25.9194 56.7961 25.9643C57.461 25.9769 58.0956 26.2457 58.5685 26.715C58.6146 26.7613 58.6688 26.7994 58.7474 26.8647C58.7589 26.8 58.7652 26.7345 58.7663 26.6688C58.7392 26.3342 58.7257 25.9996 58.6715 25.6705C58.6452 25.4541 58.5459 25.2532 58.3901 25.1013C58.2343 24.9494 58.0314 24.8555 57.8151 24.8354C57.6041 24.8055 57.3913 24.7891 57.1782 24.7864C56.4935 24.7864 55.8087 24.7864 55.124 24.7864C54.9616 24.7899 54.7999 24.81 54.6416 24.8463C54.3055 24.9197 54.1646 25.053 53.9857 25.4474H50.88C50.8735 25.3905 50.8735 25.333 50.88 25.2761C50.9106 25.0016 50.9568 24.7292 51.0182 24.46C51.0946 24.1675 51.2412 23.8982 51.4453 23.6758C51.6494 23.4534 51.9048 23.2846 52.1889 23.1842C52.6948 22.9984 53.222 22.8778 53.7581 22.8252C55.3246 22.6629 56.9019 22.6311 58.4736 22.73C58.9528 22.7422 59.4291 22.8079 59.8937 22.9258C61.0807 23.2441 61.6797 23.9459 61.8233 25.1727C61.9087 26.0441 61.9467 26.9194 61.9371 27.795C61.9371 28.9456 61.9371 30.099 61.9371 31.2496C61.9236 31.3285 61.9155 31.4128 61.9128 31.508ZM56.208 29.6039V29.5794H57.563C57.8212 29.5945 58.0774 29.5269 58.2948 29.3863C58.4251 29.3013 58.529 29.1812 58.5947 29.0398C58.6603 28.8984 58.685 28.7414 58.666 28.5865C58.6512 28.4354 58.5876 28.2933 58.4849 28.1818C58.3821 28.0703 58.2459 27.9956 58.0969 27.9691C58.0406 27.9491 57.9825 27.9346 57.9235 27.9255L56.8774 27.8494C56.1429 27.7967 55.4049 27.8259 54.6768 27.9364C54.4667 27.9696 54.2646 28.0415 54.0806 28.1486C53.9377 28.2454 53.8292 28.3854 53.7707 28.5482C53.7122 28.7111 53.7069 28.8883 53.7554 29.0544C53.7908 29.1983 53.8758 29.3251 53.9953 29.4122C54.1148 29.4993 54.2612 29.5412 54.4085 29.5304C55.0101 29.5549 55.6091 29.5712 56.208 29.5957V29.6039Z" fill="white"/>
<path d="M95.3256 31.7039C94.5126 31.6604 93.7212 31.6332 92.919 31.5679C92.3395 31.5219 91.7669 31.4115 91.2117 31.2387C90.7476 31.1185 90.3314 30.8586 90.0189 30.4938C89.7064 30.1291 89.5126 29.6771 89.4636 29.1986C89.2562 27.8298 89.27 26.4365 89.5043 25.0721C89.5656 24.6483 89.7426 24.2499 90.0157 23.921C90.2889 23.592 90.6475 23.3455 91.0518 23.2087C91.5977 23.0105 92.1655 22.879 92.7429 22.817C94.0607 22.6643 95.3896 22.6325 96.7132 22.7218C97.5679 22.757 98.4174 22.8745 99.2498 23.0727L99.4937 23.1462C99.9317 23.2749 100.325 23.5244 100.629 23.8663C100.932 24.2082 101.134 24.6288 101.212 25.0802C101.343 25.763 101.398 26.4581 101.377 27.153C101.386 27.926 101.317 28.6979 101.171 29.457C101.097 29.8478 100.92 30.2116 100.659 30.511C100.398 30.8103 100.062 31.0343 99.6861 31.1599C99.1878 31.3398 98.6703 31.4612 98.1441 31.5216C97.2084 31.6314 96.2676 31.6922 95.3256 31.7039V31.7039ZM95.3879 25.1754C94.8838 25.2054 94.3039 25.2298 93.7239 25.2788C93.4458 25.2748 93.1757 25.373 92.9646 25.5548C92.7535 25.7367 92.6158 25.9897 92.5775 26.2662C92.453 26.8567 92.4474 27.4662 92.5613 28.0588C92.5901 28.2786 92.6862 28.484 92.8361 28.6467C92.9861 28.8094 93.1827 28.9215 93.3987 28.9674C93.513 29.0015 93.63 29.026 93.7483 29.0408C94.8206 29.166 95.9037 29.166 96.976 29.0408C97.6897 28.9556 98.089 28.5929 98.1739 27.9528C98.2469 27.4412 98.2469 26.9219 98.1739 26.4104C98.0682 25.6841 97.762 25.3631 97.0302 25.2788C96.5072 25.219 95.9814 25.219 95.3825 25.1863L95.3879 25.1754Z" fill="white"/>
<path d="M72.4361 31.508V29.8922L72.2952 30.0554C72.2957 30.0627 72.2957 30.07 72.2952 30.0772C72.0777 30.4587 71.7779 30.7864 71.4177 31.0364C71.0575 31.2863 70.6462 31.4521 70.2138 31.5216C69.5161 31.658 68.8035 31.701 68.0945 31.6495C67.4713 31.6181 66.8547 31.5066 66.2598 31.3176C65.5377 31.1045 64.9199 30.6307 64.5253 29.9874C64.2628 29.5131 64.1125 28.9844 64.0863 28.4424C64.0673 28.2112 64.0863 27.9772 64.0863 27.746V22.8497H67.2273C67.2273 22.9394 67.2273 23.0238 67.2273 23.1054C67.2273 24.5063 67.2273 25.9072 67.2273 27.3053C67.2331 27.5541 67.2621 27.8019 67.314 28.0452C67.3481 28.2374 67.4373 28.4153 67.5706 28.5574C67.704 28.6994 67.8756 28.7993 68.0647 28.845C68.3438 28.9266 68.631 28.9777 68.9211 28.9973C69.5612 29.0463 70.2044 29.0353 70.8425 28.9647C71.2372 28.9205 71.6055 28.7439 71.8879 28.4635C72.1702 28.1831 72.35 27.8153 72.3981 27.4196C72.4275 27.1987 72.442 26.976 72.4415 26.7531C72.4415 25.5508 72.4415 24.3485 72.4415 23.1462V22.8497H75.5419C75.5933 23.0428 75.6069 31.1816 75.5581 31.5162L72.4361 31.508Z" fill="white"/>
<path d="M79.2032 20.8177H82.3523V22.8089C82.6477 22.8361 82.9269 22.8089 83.206 22.8089H87.3715V25.0585C87.1004 25.0721 86.8294 25.0585 86.5422 25.0585H82.374C82.374 25.1428 82.3605 25.2026 82.3605 25.2598C82.3605 26.2145 82.3605 27.1639 82.3605 28.1214C82.3641 28.2844 82.3841 28.4466 82.4201 28.6056C82.4351 28.736 82.4966 28.8566 82.5932 28.9451C82.6898 29.0336 82.8151 29.084 82.9459 29.0871C83.2006 29.1088 83.4581 29.1061 83.7128 29.1116C83.7995 29.1116 83.8835 29.0925 83.9703 29.0898C84.1216 29.0909 84.2691 29.0427 84.3908 28.9524C84.5125 28.8622 84.6017 28.7348 84.6451 28.5893C84.6968 28.3991 84.7348 28.2055 84.7589 28.0099C84.7779 27.9092 84.7833 27.8086 84.7969 27.7025H87.7373C87.7617 28.4914 87.7536 29.2612 87.4229 29.9875C87.2386 30.3921 86.9549 30.7432 86.5985 31.0077C86.242 31.2723 85.8244 31.4416 85.3849 31.4999C84.5244 31.6498 83.6488 31.6928 82.7778 31.6278C82.2225 31.604 81.6706 31.5266 81.1301 31.3965C80.7546 31.3092 80.397 31.1574 80.0731 30.9477C79.8736 30.8282 79.7027 30.6661 79.5725 30.4729C79.4423 30.2797 79.356 30.0601 79.3197 29.8297C79.2585 29.4698 79.2196 29.1064 79.2032 28.7416C79.2032 27.6318 79.2032 26.5247 79.2032 25.4148V25.0775H77.5446V22.8197H79.1951C79.2086 22.1451 79.1842 21.4814 79.2032 20.8177Z" fill="white"/>
<path d="M161.159 31.5679H157.235V18.6551C157.403 18.5898 160.707 18.5654 161.143 18.6225C161.197 18.8047 161.214 31.1843 161.159 31.5679Z" fill="white"/>
<path d="M131.318 14.6238C131.218 14.6238 131.153 14.6238 131.088 14.6238C130.243 14.6238 129.394 14.6238 128.549 14.6238C128.478 14.6176 128.407 14.6329 128.345 14.6678C128.283 14.7027 128.233 14.7556 128.202 14.8195C127.698 15.6347 127.185 16.4499 126.673 17.2651C126.635 17.3276 126.603 17.3928 126.551 17.4852C126.668 17.4852 126.749 17.4987 126.822 17.4987C127.522 17.4987 128.223 17.4987 128.925 17.4987C129.005 17.5038 129.084 17.4876 129.155 17.4518C129.226 17.416 129.286 17.3618 129.329 17.2949C129.947 16.4607 130.573 15.6347 131.196 14.8086C131.24 14.7461 131.27 14.6972 131.318 14.6238Z" fill="white"/>
<path d="M131.318 14.6238C131.27 14.6972 131.24 14.7461 131.207 14.7923C130.584 15.6075 129.958 16.4444 129.34 17.2786C129.297 17.3478 129.237 17.4041 129.165 17.4415C129.093 17.4788 129.012 17.4958 128.931 17.4905C128.229 17.4905 127.527 17.4905 126.828 17.4905C126.744 17.4905 126.662 17.4905 126.557 17.477C126.608 17.3846 126.641 17.3194 126.679 17.2569C127.191 16.4417 127.703 15.6265 128.207 14.8113C128.239 14.7474 128.289 14.6946 128.35 14.6597C128.412 14.6247 128.483 14.6094 128.554 14.6157C129.4 14.6157 130.248 14.6157 131.093 14.6157C131.153 14.6129 131.218 14.6184 131.318 14.6238Z" fill="white"/>
</svg>
